<?xml version="1.0" standalone="no"?>
<!DOCTYPE svg PUBLIC "-//W3C//DTD SVG 20010904//EN"
 "http://www.w3.org/TR/2001/REC-SVG-20010904/DTD/svg10.dtd">
<svg version="1.0" xmlns="http://www.w3.org/2000/svg"
 width="275.000000pt" height="183.000000pt" viewBox="0 0 275.000000 183.000000"
 preserveAspectRatio="xMidYMid meet">

<g transform="translate(0.000000,183.000000) scale(0.100000,-0.100000)"
fill="#000000" stroke="none">
<path d="M0 957 c0 -685 3 -876 13 -886 9 -11 9 -13 0 -7 -9 5 -13 -3 -13 -28
0 -29 4 -36 19 -36 11 0 22 6 24 13 4 10 6 10 6 0 1 -10 59 -13 257 -13 167 0
253 3 249 10 -3 6 -2 10 4 10 5 0 13 -4 16 -10 4 -7 378 -10 1091 -10 l1084 0
0 915 0 915 -47 0 -48 0 3 -172 c1 -95 4 -195 7 -223 4 -47 9 -150 35 -795 5
-135 12 -275 15 -312 5 -77 10 -74 -95 -61 -49 6 -52 8 -25 14 l30 7 -32 1
c-27 1 -32 5 -36 29 -3 17 -4 13 -3 -10 l2 -38 -118 0 c-96 0 -120 3 -133 17
-21 20 -65 24 -65 5 0 -10 -13 -13 -47 -11 -58 3 -80 12 -88 38 -3 11 -18 24
-33 30 -24 8 -25 10 -5 10 24 1 17 -21 112 313 28 97 51 181 51 185 0 4 -66 7
-148 5 l-147 -4 -2 83 c-1 46 -5 206 -8 354 -3 149 -8 313 -12 366 -5 76 -3
103 9 127 19 37 11 42 -58 42 l-44 0 0 -76 c0 -42 6 -207 14 -367 8 -161 17
-347 20 -414 l5 -123 -24 0 c-25 0 -33 -20 -91 -225 -9 -33 -20 -64 -24 -68
-4 -5 -46 -9 -94 -10 -47 -1 -86 -5 -86 -8 0 -13 -46 -2 -62 15 -10 10 -19 16
-19 13 -3 -12 -6 -22 -12 -37 -4 -8 -8 -29 -10 -45 -2 -17 -6 -36 -10 -42 -4
-6 -1 -14 5 -16 33 -14 -54 -5 -95 9 -26 9 -52 13 -59 11 -7 -3 -4 -6 7 -6 11
-1 27 -6 35 -12 11 -8 5 -9 -23 -4 -27 4 -37 3 -32 -4 3 -6 20 -11 36 -11 18
0 28 -4 24 -10 -3 -5 -2 -10 3 -10 5 0 9 -10 8 -22 -1 -17 -12 -25 -53 -37
-37 -11 -52 -20 -50 -31 1 -8 -4 -15 -12 -15 -8 0 -15 8 -17 18 -3 22 2 18
-54 49 -25 14 -55 25 -67 24 -19 -2 -21 0 -11 12 10 11 8 17 -6 28 -11 7 -23
11 -27 8 -10 -6 -31 31 -22 40 3 3 2 6 -3 6 -6 0 -15 -5 -22 -12 -9 -9 -12 -8
-12 4 0 9 -9 20 -21 23 -11 4 -18 9 -15 12 3 3 -4 13 -15 22 l-21 17 27 33
c30 34 119 91 146 91 9 0 39 -27 67 -60 28 -33 53 -57 55 -53 3 5 8 54 12 111
5 72 4 102 -4 102 -6 0 -11 7 -11 16 0 10 6 14 14 11 14 -6 20 13 32 111 6 45
2 48 -40 32 -20 -7 -26 -6 -26 4 0 8 7 17 16 20 9 4 14 9 11 13 -4 3 -25 -6
-47 -21 -23 -15 -47 -25 -53 -22 -7 2 -4 5 6 5 10 1 15 6 12 11 -4 6 4 19 17
30 30 25 18 25 -26 1 -30 -17 -36 -18 -46 -5 -10 11 -9 14 3 14 10 0 14 6 11
15 -4 8 1 17 10 21 9 3 13 10 10 15 -8 14 18 79 33 79 7 0 13 8 13 18 0 13 -2
14 -9 3 -5 -8 -14 -10 -21 -6 -10 6 -9 10 3 16 14 8 14 12 1 38 -18 36 -6 104
24 131 13 12 18 27 15 43 -3 17 1 26 12 31 16 6 17 0 13 -55 -3 -36 -10 -64
-18 -69 -11 -7 -12 -16 -2 -46 9 -31 9 -39 -5 -49 -12 -9 -13 -16 -5 -31 6
-10 14 -40 17 -66 7 -55 -1 -52 135 -52 l94 -1 8 -40 c4 -22 7 -113 7 -202 1
-134 4 -164 17 -178 9 -8 25 -13 35 -10 10 3 28 7 38 10 14 4 25 -2 36 -19 12
-17 25 -25 41 -24 13 1 24 6 24 10 0 4 10 8 23 8 12 0 32 7 44 15 19 14 22 22
17 68 -2 29 -7 135 -9 237 -3 102 -9 205 -14 230 -5 25 -11 167 -15 315 -4
149 -9 298 -13 333 l-6 62 -72 0 -71 0 4 -138 c4 -122 2 -140 -12 -145 -43
-17 -56 27 -56 196 0 86 0 87 -25 87 l-25 0 5 -92 c3 -51 7 -118 10 -148 2
-30 0 -61 -4 -69 -5 -7 -41 -19 -80 -26 -65 -11 -72 -10 -87 7 -10 10 -22 18
-28 18 -6 0 -24 7 -41 16 -55 30 -177 64 -226 64 l-49 0 0 115 0 115 -440 0
-440 0 0 -873z m1054 365 c-6 -4 -7 -17 -3 -32 l7 -25 1 25 c1 20 3 22 11 10
15 -24 11 -63 -9 -87 -11 -13 -22 -23 -24 -23 -3 0 -9 25 -12 55 -7 55 3 85
29 85 8 0 8 -3 0 -8z m-70 -109 c-1 -16 3 -33 8 -39 10 -14 -11 -169 -27 -194
-9 -14 -55 7 -90 40 -44 42 -72 50 -125 34 -24 -7 -45 -12 -46 -11 -2 1 10 11
27 22 16 11 32 30 35 42 6 24 43 38 90 34 27 -2 40 6 80 48 27 28 49 51 49 51
1 0 0 -12 -1 -27z m56 -43 c0 -5 -7 -10 -16 -10 -8 0 -12 5 -9 10 3 6 10 10
16 10 5 0 9 -4 9 -10z m20 -225 c0 -12 14 -43 31 -68 l31 -47 -13 -65 c-7 -35
-16 -62 -20 -60 -4 3 -10 33 -14 67 -7 65 -32 116 -84 171 -18 20 -21 26 -8
22 12 -5 17 -2 17 12 0 11 3 22 6 26 10 10 54 -36 54 -58z m631 -443 c12 -31
-3 -28 -18 4 -8 17 -8 24 -1 22 6 -2 15 -14 19 -26z m-112 7 c17 -6 31 -16 31
-21 0 -6 11 -8 25 -6 14 3 30 -1 36 -8 9 -11 5 -16 -17 -26 l-29 -12 28 -4
c28 -3 39 -32 12 -32 -8 0 -31 -11 -51 -25 -46 -31 -59 -31 -95 -1 -22 19 -25
25 -13 28 14 3 13 7 -5 30 -13 16 -19 33 -14 45 16 45 35 52 92 32z m399 -146
c-10 -2 -26 -2 -35 0 -10 3 -2 5 17 5 19 0 27 -2 18 -5z m-111 -10 c-20 -2
-52 -2 -70 0 -17 2 0 4 38 4 39 0 53 -2 32 -4z m-150 -10 c-20 -2 -52 -2 -70
0 -17 2 0 4 38 4 39 0 53 -2 32 -4z m100 -29 c-3 -3 -12 -4 -19 -1 -8 3 -5 6
6 6 11 1 17 -2 13 -5z m-724 -41 c-7 -2 -21 -2 -30 0 -10 3 -4 5 12 5 17 0 24
-2 18 -5z m-10 -20 c-7 -2 -19 -2 -25 0 -7 3 -2 5 12 5 14 0 19 -2 13 -5z
m135 -10 c-15 -2 -42 -2 -60 0 -18 2 -6 4 27 4 33 0 48 -2 33 -4z m866 -11 c2
-4 -12 -6 -32 -4 -56 5 -62 10 -15 11 23 1 44 -3 47 -7z m49 -9 c-7 -2 -19 -2
-25 0 -7 3 -2 5 12 5 14 0 19 -2 13 -5z m-55 -20 c-16 -2 -40 -2 -55 0 -16 2
-3 4 27 4 30 0 43 -2 28 -4z m-1714 -59 c22 -8 20 -21 -4 -27 -15 -4 -20 0
-20 14 0 21 1 22 24 13z m1006 -64 c8 -5 -7 -8 -38 -8 -40 -1 -52 3 -52 14 0
12 8 13 38 8 20 -4 44 -10 52 -14z m-1010 -46 c0 -2 -7 -4 -15 -4 -8 0 -15 4
-15 10 0 5 7 7 15 4 8 -4 15 -8 15 -10z m63 -11 c-7 -2 -21 -2 -30 0 -10 3 -4
5 12 5 17 0 24 -2 18 -5z"/>
<path d="M1040 1245 c0 -8 5 -15 10 -15 6 0 10 7 10 15 0 8 -4 15 -10 15 -5 0
-10 -7 -10 -15z"/>
<path d="M2198 1591 c-39 -9 -21 -30 20 -24 18 3 31 10 29 16 -4 14 -16 16
-49 8z"/>
<path d="M2533 1493 c-41 -5 -43 -23 -4 -23 37 0 62 10 55 21 -3 5 -8 8 -12 7
-4 0 -22 -3 -39 -5z"/>
<path d="M2510 1060 c0 -5 18 -10 40 -10 22 0 40 5 40 10 0 6 -18 10 -40 10
-22 0 -40 -4 -40 -10z"/>
<path d="M2208 1033 c6 -2 18 -2 25 0 6 3 1 5 -13 5 -14 0 -19 -2 -12 -5z"/>
<path d="M2215 760 c-4 -6 5 -10 19 -10 14 0 26 5 26 10 0 6 -9 10 -19 10 -11
0 -23 -4 -26 -10z"/>
<path d="M2532 488 c5 -15 77 -17 81 -2 1 5 -18 10 -42 12 -32 2 -42 0 -39
-10z"/>
<path d="M2603 335 c-9 -29 -9 -35 3 -35 9 0 14 12 14 35 0 19 -1 35 -3 35 -2
0 -8 -16 -14 -35z"/>
</g>
</svg>
