<?xml version="1.0" standalone="no"?>
<!DOCTYPE svg PUBLIC "-//W3C//DTD SVG 20010904//EN"
 "http://www.w3.org/TR/2001/REC-SVG-20010904/DTD/svg10.dtd">
<svg version="1.0" xmlns="http://www.w3.org/2000/svg"
 width="225.000000pt" height="225.000000pt" viewBox="0 0 225.000000 225.000000"
 preserveAspectRatio="xMidYMid meet">

<g transform="translate(0.000000,225.000000) scale(0.100000,-0.100000)"
fill="#000000" stroke="none">
<path d="M1315 1916 c-61 -27 -95 -77 -95 -137 0 -32 -2 -31 93 -31 59 0 67
-2 67 -19 0 -14 -7 -19 -25 -19 -14 0 -25 5 -25 10 0 6 -4 10 -9 10 -5 0 -7
-8 -4 -17 6 -26 93 -28 93 -3 0 15 18 30 36 30 2 0 4 -15 4 -34 0 -29 5 -36
30 -45 28 -9 31 -8 46 20 23 45 22 144 -3 177 -43 60 -143 87 -208 58z"/>
<path d="M435 1766 c-16 -12 -19 -25 -18 -78 4 -106 72 -310 117 -347 9 -8 16
-29 16 -47 0 -30 -3 -34 -27 -34 -16 0 -41 -8 -56 -19 -23 -15 -25 -19 -12
-25 9 -3 13 -2 10 4 -4 6 31 10 92 9 54 0 105 0 113 0 26 2 -4 20 -45 29 l-40
8 -7 66 c-3 37 -9 72 -13 77 -11 19 -44 155 -39 163 3 5 -2 15 -11 24 -9 9
-14 23 -11 30 3 7 -1 26 -9 41 -8 15 -17 47 -21 70 -7 47 -11 50 -39 29z"/>
<path d="M1255 1719 c-9 -13 0 -22 26 -26 12 -2 18 1 14 8 -4 6 -13 8 -21 5
-8 -3 -11 0 -7 10 6 16 -3 19 -12 3z"/>
<path d="M1520 1585 c-6 -19 -21 -42 -33 -50 -12 -8 -17 -15 -12 -16 6 0 0 -4
-12 -9 -30 -12 -29 -32 3 -47 21 -10 25 -10 20 2 -3 8 0 12 7 9 7 -2 20 11 30
28 l17 33 -20 -24 c-11 -13 -23 -21 -27 -18 -7 8 37 46 53 47 7 0 15 7 18 16
5 12 10 14 20 5 7 -6 15 -8 19 -5 11 11 46 -16 41 -31 -4 -8 -1 -15 6 -15 13
0 5 -50 -9 -60 -4 -3 -17 -22 -30 -42 -12 -21 -27 -38 -32 -38 -5 0 -15 -12
-21 -26 -10 -20 -14 -23 -23 -12 -5 7 -16 14 -23 16 -10 2 -10 -2 -2 -17 15
-29 13 -36 -17 -52 -16 -8 -34 -21 -41 -29 -10 -12 -11 -10 -6 15 9 39 10 40
31 24 17 -12 17 -12 1 5 -15 18 -17 18 -47 0 -33 -20 -40 -34 -16 -34 8 0 15
5 15 12 0 6 2 9 5 7 2 -3 2 -15 -2 -28 -4 -17 -8 -19 -14 -9 -6 9 -9 9 -9 1 0
-22 18 -23 45 -1 l28 22 -6 -70 c-4 -38 -9 -86 -13 -107 -5 -30 -4 -38 7 -36
24 5 89 -11 134 -33 31 -15 49 -33 65 -66 26 -52 31 -48 56 50 16 62 19 66 31
48 8 -11 21 -20 29 -20 19 0 18 -30 -6 -97 -26 -73 -32 -79 -64 -57 -29 18
-15 20 -206 -23 -14 -3 -36 -6 -50 -7 -14 -1 -29 -4 -35 -7 -5 -4 -22 -9 -37
-13 -68 -16 -7 -56 85 -56 l69 0 -6 -117 c-3 -65 -8 -136 -12 -159 -6 -39 -8
-42 -59 -58 -29 -9 -58 -23 -65 -31 -11 -14 -14 -13 -26 4 -12 17 -17 18 -51
6 -26 -9 -44 -10 -57 -3 -11 6 -16 6 -12 0 3 -5 -16 -17 -42 -27 -124 -46
-143 -57 -130 -73 11 -12 35 -14 158 -8 79 4 151 12 158 18 7 6 11 20 10 31
-4 27 39 57 90 64 40 5 42 4 42 -21 0 -14 -4 -26 -10 -26 -5 0 -10 -11 -10
-25 0 -29 25 -43 49 -28 18 12 18 21 2 72 l-10 34 41 -6 c50 -7 93 -36 94 -66
1 -12 6 -27 12 -33 16 -16 47 -5 50 18 4 27 -77 91 -134 105 -41 11 -42 11
-49 67 -4 32 -8 102 -9 157 l-1 100 71 5 c65 5 104 20 104 41 0 4 10 19 23 33
36 38 63 133 107 368 22 119 40 223 40 232 0 28 -18 17 -25 -14 -5 -25 -12
-30 -35 -30 -35 0 -48 -16 -59 -74 -12 -67 -18 -65 -23 7 -9 114 -89 234 -183
273 -48 20 -52 18 -65 -21z"/>
<path d="M1619 1518 c4 -28 6 -29 9 -9 2 13 0 27 -5 32 -6 6 -7 -3 -4 -23z"/>
<path d="M1595 1450 c-3 -6 1 -7 9 -4 18 7 21 14 7 14 -6 0 -13 -4 -16 -10z"/>
<path d="M1586 1416 c6 -15 4 -18 -9 -13 -12 4 -14 2 -10 -10 5 -13 2 -15 -11
-10 -11 5 -15 3 -10 -5 5 -8 2 -9 -9 -5 -9 3 -19 2 -22 -3 -6 -9 30 -6 57 5
22 9 31 36 18 49 -8 8 -9 6 -4 -8z"/>
<path d="M1422 1384 c-7 -8 -8 -14 -3 -14 10 0 25 19 20 25 -2 1 -10 -3 -17
-11z"/>
<path d="M1477 1333 c-3 -4 1 -14 9 -20 7 -7 15 -9 18 -4 3 5 -1 14 -8 20 -8
7 -16 8 -19 4z"/>
<path d="M1355 1320 c-3 -5 -1 -10 4 -10 6 0 11 5 11 10 0 6 -2 10 -4 10 -3 0
-8 -4 -11 -10z"/>
<path d="M1370 1290 c0 -5 5 -10 10 -10 6 0 10 5 10 10 0 6 -4 10 -10 10 -5 0
-10 -4 -10 -10z"/>
<path d="M1055 1280 c-3 -6 1 -7 9 -4 9 3 16 1 16 -5 0 -6 5 -11 11 -11 5 0 7
5 4 10 -3 6 -1 10 4 10 6 0 11 -5 11 -11 0 -5 5 -7 11 -4 6 4 8 9 5 12 -10 10
-65 12 -71 3z"/>
<path d="M1174 1263 c-16 -16 -15 -18 10 -26 19 -6 30 -4 42 8 15 15 14 15
-11 9 -24 -6 -27 -4 -22 10 8 21 3 20 -19 -1z"/>
<path d="M746 1253 c-19 -19 10 -23 155 -23 118 0 158 -3 153 -12 -4 -7 -3 -8
4 -4 9 5 9 13 2 26 -10 18 -22 20 -159 19 -82 0 -152 -3 -155 -6z"/>
<path d="M1386 1236 c4 -17 1 -25 -13 -30 -14 -6 -15 -4 -6 5 22 23 4 37 -35
28 -20 -5 -46 -6 -57 -4 -11 3 -14 2 -7 -1 6 -3 10 -10 6 -15 -3 -5 2 -9 10
-9 8 0 18 5 21 10 3 6 13 10 21 10 20 0 17 -20 -3 -21 -14 0 -13 -2 4 -9 12
-5 34 -7 50 -5 15 2 31 4 35 4 7 1 -20 61 -28 61 -2 0 -2 -11 2 -24z"/>
<path d="M437 1202 c-77 -2 -87 -5 -77 -17 8 -10 32 -15 71 -15 l59 0 1 -382
c0 -211 0 -407 -1 -435 -1 -47 1 -53 19 -53 21 0 21 2 21 435 l0 435 223 0
c128 0 227 4 233 10 6 6 8 -146 6 -412 -2 -376 -1 -419 13 -408 8 7 15 8 15 2
0 -5 -7 -12 -15 -16 -23 -8 -19 -46 5 -46 19 0 20 8 22 443 l3 442 25 2 25 2
-25 -9 c-18 -6 -6 -8 45 -7 59 2 70 5 73 21 3 12 0 16 -8 11 -7 -4 -53 -7
-103 -7 -57 1 -97 -3 -106 -11 -12 -10 -13 -9 -7 1 6 11 -32 13 -202 11 -116
0 -214 0 -219 2 -4 2 -48 3 -96 1z m16 -19 c-7 -2 -19 -2 -25 0 -7 3 -2 5 12
5 14 0 19 -2 13 -5z m470 0 c-13 -2 -35 -2 -50 0 -16 2 -5 4 22 4 28 0 40 -2
28 -4z"/>
<path d="M1446 872 c-3 -5 1 -9 9 -9 8 0 12 4 9 9 -3 4 -7 8 -9 8 -2 0 -6 -4
-9 -8z"/>
<path d="M1223 773 c19 -5 23 -19 6 -25 -8 -3 -5 -19 9 -48 24 -55 44 -143 36
-167 -5 -16 -4 -16 6 1 10 15 14 16 21 5 5 -8 9 -18 9 -24 0 -5 -5 -3 -10 5
-9 13 -10 13 -11 0 0 -8 -2 -27 -4 -42 -2 -16 1 -28 6 -28 5 0 9 8 9 19 0 10
7 24 15 31 17 14 20 40 4 40 -5 0 -7 5 -4 10 6 10 -37 167 -57 208 -7 13 -20
22 -32 21 -17 -1 -18 -2 -3 -6z m32 -33 c3 -5 1 -10 -4 -10 -6 0 -11 5 -11 10
0 6 2 10 4 10 3 0 8 -4 11 -10z m32 -122 c-3 -7 -5 -2 -5 12 0 14 2 19 5 13 2
-7 2 -19 0 -25z m18 -38 c3 -5 1 -10 -4 -10 -6 0 -11 5 -11 10 0 6 2 10 4 10
3 0 8 -4 11 -10z"/>
<path d="M1221 494 c0 -11 3 -14 6 -6 3 7 2 16 -1 19 -3 4 -6 -2 -5 -13z"/>
<path d="M1310 470 c0 -5 8 -10 17 -10 15 0 14 -2 -3 -15 -18 -13 -18 -14 4
-8 15 4 21 11 18 20 -3 8 -6 17 -6 19 0 2 -7 4 -15 4 -8 0 -15 -4 -15 -10z"/>
</g>
</svg>
